<mxfile host="app.diagrams.net" modified="2024-09-20T01:04:28.461Z" agent="Mozilla/5.0 (Windows NT 10.0; Win64; x64) AppleWebKit/537.36 (KHTML, like Gecko) Chrome/128.0.0.0 Safari/537.36 Edg/128.0.0.0" version="24.6.4" etag="tkPE0JbuvPxXeOBGRevx" type="github">
  <diagram name="Page-1" id="0bZ21mxO1ZD9upyC5Dhb">
    <mxGraphModel>
      <root>
        <mxCell id="0" />
        <mxCell id="1" parent="0" />
      </root>
    </mxGraphModel>
  </diagram>
</mxfile>
